<svg width="154" height="118" viewBox="0 0 154 118" fill="none" xmlns="http://www.w3.org/2000/svg">
<rect x="0.5" y="0.5" width="153" height="117" rx="9.5" stroke="black" stroke-opacity="0.42"/>
<path d="M27.0163 83L31.4543 73.2H32.8403L37.2923 83H35.8223L31.8603 73.984H32.4203L28.4583 83H27.0163ZM28.9063 80.55L29.2843 79.43H34.8003L35.2063 80.55H28.9063ZM41.5558 83.084C40.8372 83.084 40.1932 82.9253 39.6238 82.608C39.0638 82.2907 38.6205 81.8473 38.2938 81.278C37.9672 80.7087 37.8038 80.046 37.8038 79.29C37.8038 78.534 37.9672 77.876 38.2938 77.316C38.6205 76.7467 39.0638 76.3033 39.6238 75.986C40.1932 75.6687 40.8372 75.51 41.5558 75.51C42.1812 75.51 42.7458 75.65 43.2498 75.93C43.7538 76.21 44.1552 76.63 44.4538 77.19C44.7618 77.75 44.9158 78.45 44.9158 79.29C44.9158 80.13 44.7665 80.83 44.4678 81.39C44.1785 81.95 43.7818 82.3747 43.2778 82.664C42.7738 82.944 42.1998 83.084 41.5558 83.084ZM41.6678 81.908C42.1345 81.908 42.5545 81.8007 42.9278 81.586C43.3105 81.3713 43.6092 81.068 43.8238 80.676C44.0478 80.2747 44.1598 79.8127 44.1598 79.29C44.1598 78.758 44.0478 78.3007 43.8238 77.918C43.6092 77.526 43.3105 77.2227 42.9278 77.008C42.5545 76.7933 42.1345 76.686 41.6678 76.686C41.1918 76.686 40.7672 76.7933 40.3938 77.008C40.0205 77.2227 39.7218 77.526 39.4978 77.918C39.2738 78.3007 39.1618 78.758 39.1618 79.29C39.1618 79.8127 39.2738 80.2747 39.4978 80.676C39.7218 81.068 40.0205 81.3713 40.3938 81.586C40.7672 81.8007 41.1918 81.908 41.6678 81.908ZM44.2018 83V80.998L44.2858 79.276L44.1458 77.554V72.612H45.4898V83H44.2018ZM51.0988 83.084C50.3801 83.084 49.7361 82.9253 49.1668 82.608C48.6068 82.2907 48.1635 81.8473 47.8368 81.278C47.5101 80.7087 47.3468 80.046 47.3468 79.29C47.3468 78.534 47.5101 77.876 47.8368 77.316C48.1635 76.7467 48.6068 76.3033 49.1668 75.986C49.7361 75.6687 50.3801 75.51 51.0988 75.51C51.7241 75.51 52.2888 75.65 52.7928 75.93C53.2968 76.21 53.6981 76.63 53.9968 77.19C54.3048 77.75 54.4588 78.45 54.4588 79.29C54.4588 80.13 54.3095 80.83 54.0108 81.39C53.7215 81.95 53.3248 82.3747 52.8208 82.664C52.3168 82.944 51.7428 83.084 51.0988 83.084ZM51.2108 81.908C51.6775 81.908 52.0975 81.8007 52.4708 81.586C52.8535 81.3713 53.1521 81.068 53.3668 80.676C53.5908 80.2747 53.7028 79.8127 53.7028 79.29C53.7028 78.758 53.5908 78.3007 53.3668 77.918C53.1521 77.526 52.8535 77.2227 52.4708 77.008C52.0975 76.7933 51.6775 76.686 51.2108 76.686C50.7348 76.686 50.3101 76.7933 49.9368 77.008C49.5635 77.2227 49.2648 77.526 49.0408 77.918C48.8168 78.3007 48.7048 78.758 48.7048 79.29C48.7048 79.8127 48.8168 80.2747 49.0408 80.676C49.2648 81.068 49.5635 81.3713 49.9368 81.586C50.3101 81.8007 50.7348 81.908 51.2108 81.908ZM53.7448 83V80.998L53.8288 79.276L53.6888 77.554V72.612H55.0328V83H53.7448ZM63.4635 83.084C62.8475 83.084 62.2595 83 61.6995 82.832C61.1489 82.664 60.7149 82.4587 60.3975 82.216L60.9575 81.152C61.2749 81.3667 61.6669 81.5487 62.1335 81.698C62.6002 81.8473 63.0762 81.922 63.5615 81.922C64.1869 81.922 64.6349 81.8333 64.9055 81.656C65.1855 81.4787 65.3255 81.2313 65.3255 80.914C65.3255 80.6807 65.2415 80.4987 65.0735 80.368C64.9055 80.2373 64.6815 80.1393 64.4015 80.074C64.1309 80.0087 63.8275 79.9527 63.4915 79.906C63.1555 79.85 62.8195 79.7847 62.4835 79.71C62.1475 79.626 61.8395 79.514 61.5595 79.374C61.2795 79.2247 61.0555 79.024 60.8875 78.772C60.7195 78.5107 60.6355 78.1653 60.6355 77.736C60.6355 77.288 60.7615 76.896 61.0135 76.56C61.2655 76.224 61.6202 75.9673 62.0775 75.79C62.5442 75.6033 63.0949 75.51 63.7295 75.51C64.2149 75.51 64.7049 75.5707 65.1995 75.692C65.7035 75.804 66.1142 75.9673 66.4315 76.182L65.8575 77.246C65.5215 77.022 65.1715 76.868 64.8075 76.784C64.4435 76.7 64.0795 76.658 63.7155 76.658C63.1275 76.658 62.6889 76.756 62.3995 76.952C62.1102 77.1387 61.9655 77.3813 61.9655 77.68C61.9655 77.932 62.0495 78.128 62.2175 78.268C62.3949 78.3987 62.6189 78.5013 62.8895 78.576C63.1695 78.6507 63.4775 78.716 63.8135 78.772C64.1495 78.8187 64.4855 78.884 64.8215 78.968C65.1575 79.0427 65.4609 79.15 65.7315 79.29C66.0115 79.43 66.2355 79.626 66.4035 79.878C66.5809 80.13 66.6695 80.466 66.6695 80.886C66.6695 81.334 66.5389 81.7213 66.2775 82.048C66.0162 82.3747 65.6475 82.6313 65.1715 82.818C64.6955 82.9953 64.1262 83.084 63.4635 83.084ZM68.3492 83V75.58H69.6932V83H68.3492ZM69.0212 74.152C68.7599 74.152 68.5405 74.068 68.3632 73.9C68.1952 73.732 68.1112 73.5267 68.1112 73.284C68.1112 73.032 68.1952 72.822 68.3632 72.654C68.5405 72.486 68.7599 72.402 69.0212 72.402C69.2825 72.402 69.4972 72.486 69.6652 72.654C69.8425 72.8127 69.9312 73.0133 69.9312 73.256C69.9312 73.508 69.8472 73.7227 69.6792 73.9C69.5112 74.068 69.2919 74.152 69.0212 74.152ZM75.5074 85.8C74.826 85.8 74.1634 85.702 73.5194 85.506C72.8847 85.3193 72.3667 85.0487 71.9654 84.694L72.6094 83.658C72.9547 83.9567 73.3794 84.19 73.8834 84.358C74.3874 84.5353 74.9147 84.624 75.4654 84.624C76.3427 84.624 76.9867 84.4187 77.3974 84.008C77.808 83.5973 78.0134 82.972 78.0134 82.132V80.564L78.1534 79.094L78.0834 77.61V75.58H79.3574V81.992C79.3574 83.2987 79.0307 84.26 78.3774 84.876C77.724 85.492 76.7674 85.8 75.5074 85.8ZM75.3394 82.692C74.6207 82.692 73.9767 82.5427 73.4074 82.244C72.8474 81.936 72.3994 81.5113 72.0634 80.97C71.7367 80.4287 71.5734 79.8033 71.5734 79.094C71.5734 78.3753 71.7367 77.75 72.0634 77.218C72.3994 76.6767 72.8474 76.2567 73.4074 75.958C73.9767 75.6593 74.6207 75.51 75.3394 75.51C75.974 75.51 76.5527 75.6407 77.0754 75.902C77.598 76.154 78.0134 76.546 78.3214 77.078C78.6387 77.61 78.7974 78.282 78.7974 79.094C78.7974 79.8967 78.6387 80.564 78.3214 81.096C78.0134 81.628 77.598 82.0293 77.0754 82.3C76.5527 82.5613 75.974 82.692 75.3394 82.692ZM75.4934 81.516C75.988 81.516 76.4267 81.4133 76.8094 81.208C77.192 81.0027 77.4907 80.718 77.7054 80.354C77.9294 79.99 78.0414 79.57 78.0414 79.094C78.0414 78.618 77.9294 78.198 77.7054 77.834C77.4907 77.47 77.192 77.19 76.8094 76.994C76.4267 76.7887 75.988 76.686 75.4934 76.686C74.9987 76.686 74.5554 76.7887 74.1634 76.994C73.7807 77.19 73.4774 77.47 73.2534 77.834C73.0387 78.198 72.9314 78.618 72.9314 79.094C72.9314 79.57 73.0387 79.99 73.2534 80.354C73.4774 80.718 73.7807 81.0027 74.1634 81.208C74.5554 81.4133 74.9987 81.516 75.4934 81.516ZM85.8874 75.51C86.494 75.51 87.026 75.6267 87.4834 75.86C87.95 76.0933 88.314 76.448 88.5754 76.924C88.8367 77.4 88.9674 78.002 88.9674 78.73V83H87.6234V78.884C87.6234 78.1653 87.446 77.624 87.0914 77.26C86.746 76.896 86.256 76.714 85.6214 76.714C85.1454 76.714 84.73 76.8073 84.3754 76.994C84.0207 77.1807 83.7454 77.456 83.5494 77.82C83.3627 78.184 83.2694 78.6367 83.2694 79.178V83H81.9254V75.58H83.2134V77.582L83.0034 77.05C83.246 76.5647 83.6194 76.1867 84.1234 75.916C84.6274 75.6453 85.2154 75.51 85.8874 75.51ZM96.0607 83V81.432L95.9907 81.138V78.464C95.9907 77.8947 95.8227 77.456 95.4867 77.148C95.16 76.8307 94.6653 76.672 94.0027 76.672C93.564 76.672 93.1347 76.7467 92.7147 76.896C92.2947 77.036 91.94 77.2273 91.6507 77.47L91.0907 76.462C91.4733 76.154 91.9307 75.9207 92.4627 75.762C93.004 75.594 93.5687 75.51 94.1567 75.51C95.174 75.51 95.958 75.7573 96.5087 76.252C97.0593 76.7467 97.3347 77.5027 97.3347 78.52V83H96.0607ZM93.6247 83.084C93.074 83.084 92.5887 82.9907 92.1687 82.804C91.758 82.6173 91.4407 82.3607 91.2167 82.034C90.9927 81.698 90.8807 81.32 90.8807 80.9C90.8807 80.4987 90.974 80.1347 91.1607 79.808C91.3567 79.4813 91.6693 79.22 92.0987 79.024C92.5373 78.828 93.1253 78.73 93.8627 78.73H96.2147V79.696H93.9187C93.2467 79.696 92.794 79.808 92.5607 80.032C92.3273 80.256 92.2107 80.5267 92.2107 80.844C92.2107 81.208 92.3553 81.502 92.6447 81.726C92.934 81.9407 93.3353 82.048 93.8487 82.048C94.3527 82.048 94.7913 81.936 95.1647 81.712C95.5473 81.488 95.8227 81.1613 95.9907 80.732L96.2567 81.656C96.0793 82.0947 95.7667 82.4447 95.3187 82.706C94.8707 82.958 94.306 83.084 93.6247 83.084ZM102.37 83.084C101.623 83.084 101.045 82.8833 100.634 82.482C100.223 82.0807 100.018 81.5067 100.018 80.76V73.956H101.362V80.704C101.362 81.1053 101.46 81.4133 101.656 81.628C101.861 81.8427 102.151 81.95 102.524 81.95C102.944 81.95 103.294 81.8333 103.574 81.6L103.994 82.566C103.789 82.7433 103.541 82.874 103.252 82.958C102.972 83.042 102.678 83.084 102.37 83.084ZM98.7579 76.686V75.58H103.49V76.686H98.7579ZM108.741 83.084C108.106 83.084 107.546 82.9673 107.061 82.734C106.585 82.5007 106.211 82.146 105.941 81.67C105.679 81.1847 105.549 80.578 105.549 79.85V75.58H106.893V79.696C106.893 80.424 107.065 80.97 107.411 81.334C107.765 81.698 108.26 81.88 108.895 81.88C109.361 81.88 109.767 81.7867 110.113 81.6C110.458 81.404 110.724 81.124 110.911 80.76C111.097 80.3867 111.191 79.9387 111.191 79.416V75.58H112.535V83H111.261V80.998L111.471 81.53C111.228 82.0247 110.864 82.4073 110.379 82.678C109.893 82.9487 109.347 83.084 108.741 83.084ZM115.093 83V75.58H116.381V77.596L116.255 77.092C116.461 76.5787 116.806 76.1867 117.291 75.916C117.777 75.6453 118.374 75.51 119.083 75.51V76.812C119.027 76.8027 118.971 76.798 118.915 76.798C118.869 76.798 118.822 76.798 118.775 76.798C118.057 76.798 117.487 77.0127 117.067 77.442C116.647 77.8713 116.437 78.492 116.437 79.304V83H115.093ZM123.975 83.084C123.182 83.084 122.482 82.9207 121.875 82.594C121.278 82.2673 120.811 81.8193 120.475 81.25C120.149 80.6807 119.985 80.0273 119.985 79.29C119.985 78.5527 120.144 77.8993 120.461 77.33C120.788 76.7607 121.231 76.3173 121.791 76C122.361 75.6733 123 75.51 123.709 75.51C124.428 75.51 125.063 75.6687 125.613 75.986C126.164 76.3033 126.593 76.7513 126.901 77.33C127.219 77.8993 127.377 78.5667 127.377 79.332C127.377 79.388 127.373 79.4533 127.363 79.528C127.363 79.6027 127.359 79.6727 127.349 79.738H121.035V78.772H126.649L126.103 79.108C126.113 78.632 126.015 78.2073 125.809 77.834C125.604 77.4607 125.319 77.1713 124.955 76.966C124.601 76.7513 124.185 76.644 123.709 76.644C123.243 76.644 122.827 76.7513 122.463 76.966C122.099 77.1713 121.815 77.4653 121.609 77.848C121.404 78.2213 121.301 78.6507 121.301 79.136V79.36C121.301 79.8547 121.413 80.298 121.637 80.69C121.871 81.0727 122.193 81.3713 122.603 81.586C123.014 81.8007 123.485 81.908 124.017 81.908C124.456 81.908 124.853 81.8333 125.207 81.684C125.571 81.5347 125.889 81.3107 126.159 81.012L126.901 81.88C126.565 82.272 126.145 82.5707 125.641 82.776C125.147 82.9813 124.591 83.084 123.975 83.084Z" fill="#5856D6"/>
<path d="M81.4105 54.3386C83.5044 54.3386 84.3209 55.2719 84.9405 57.3403L85.0493 57.7197C85.3423 58.7715 85.5168 59.0869 85.8706 59.2326C86.2852 59.4039 86.5606 59.3799 86.996 59.1557L87.2313 59.0245C87.3162 58.9732 87.4074 58.914 87.5131 58.8452L88.5745 58.1231C89.5607 57.4748 90.4476 57.0457 91.525 56.7768C91.832 56.7047 92.1551 56.7564 92.4244 56.9206C92.6937 57.0848 92.8876 57.3483 92.9641 57.6543C93.0406 57.9603 92.9937 58.2841 92.8335 58.5557C92.6732 58.8274 92.4125 59.0251 92.1077 59.1061C91.4592 59.2709 90.8402 59.5355 90.273 59.8905L89.796 60.1947L89.0276 60.7198C88.7287 60.9297 88.417 61.1205 88.0942 61.2913C87.0648 61.8196 86.0611 61.9093 84.9565 61.4514C83.7622 60.9615 83.2819 60.2043 82.8321 58.6979L82.5823 57.8286C82.2926 56.8857 82.0941 56.74 81.4105 56.74C80.9142 56.74 80.4019 56.9881 79.6991 57.5772L79.4045 57.835L77.9301 59.2358C75.6761 61.3554 73.7534 62.3847 71.0014 62.3847C68.3023 62.3847 65.9682 61.9781 64.0087 61.1536L68.7265 59.8665C69.4422 59.9434 70.201 59.9834 71.0014 59.9834C72.8953 59.9834 74.2545 59.319 75.9434 57.8014L76.3564 57.4187L77.2081 56.6023C77.5859 56.2389 77.8709 55.9779 78.1558 55.7378C79.2509 54.8205 80.245 54.3386 81.4105 54.3386V54.3386ZM88.2623 32.6785C89.3361 33.7529 89.9393 35.2097 89.9393 36.7287C89.9393 38.2477 89.3361 39.7046 88.2623 40.779L87.8013 41.2433C89.6439 43.4845 89.5783 45.8635 87.8637 47.5828L84.6603 50.7846C84.4348 51.0097 84.1292 51.1359 83.8107 51.1356C83.4921 51.1353 83.1868 51.0085 82.9617 50.783C82.7367 50.5576 82.6105 50.252 82.6108 49.9334C82.6111 49.6149 82.7379 49.3095 82.9633 49.0845L86.1635 45.8859C86.94 45.1062 87.028 44.1409 86.0995 42.9418L72.3046 56.74C71.8609 57.1836 71.3091 57.5037 70.7037 57.6685L62.5151 59.9017C62.3109 59.9571 62.0958 59.9576 61.8914 59.9031C61.687 59.8486 61.5007 59.7411 61.3512 59.5915C61.2017 59.4419 61.0944 59.2554 61.0402 59.051C60.9859 58.8465 60.9866 58.6314 61.0422 58.4273L63.2739 50.2371C63.4389 49.6323 63.759 49.081 64.2024 48.6378L80.1618 32.6785C80.6937 32.1463 81.3252 31.7242 82.0203 31.4362C82.7154 31.1482 83.4605 31 84.2128 31C84.9652 31 85.7103 31.1482 86.4054 31.4362C87.1005 31.7242 87.732 32.1463 88.2639 32.6785H88.2623Z" fill="#5856D6"/>
</svg>
