<svg width="154" height="118" viewBox="0 0 154 118" fill="none" xmlns="http://www.w3.org/2000/svg">
<rect x="0.5" y="0.5" width="153" height="117" rx="9.5" stroke="black" stroke-opacity="0.42"/>
<path d="M79.944 50.7848L80.0857 50.9036L90.6427 61.2655C89.8627 61.7468 88.9641 62.0012 88.0476 62H70.5238C69.6075 62.0016 68.7088 61.7478 67.9288 61.267L78.4857 50.9036L78.6122 50.7954C78.8052 50.6547 79.0375 50.578 79.2764 50.576C79.5153 50.5741 79.7487 50.6471 79.944 50.7848V50.7848ZM88.0476 34.5714C88.698 34.5714 89.342 34.6995 89.9428 34.9484C90.5437 35.1973 91.0896 35.5621 91.5495 36.0219C92.0094 36.4818 92.3741 37.0278 92.623 37.6286C92.8719 38.2295 93 38.8735 93 39.5238V57.0476C93 58.003 92.7288 58.896 92.261 59.6533L81.6872 49.2716L81.4922 49.0949C80.8762 48.5769 80.0976 48.2921 79.2927 48.2904C78.4879 48.2887 77.7081 48.5703 77.0899 49.0857L76.8842 49.2731L66.3105 59.6518C65.8259 58.8697 65.5699 57.9676 65.5714 57.0476V47.5269C67.3834 48.2831 69.3793 48.4837 71.3056 48.1032C73.2318 47.7227 75.0015 46.7783 76.3899 45.3899C77.7783 44.0015 78.7227 42.2318 79.1032 40.3056C79.4837 38.3793 79.2831 36.3834 78.5269 34.5714H88.0476ZM69.381 30C70.4816 30 71.5714 30.2168 72.5882 30.638C73.605 31.0591 74.5289 31.6765 75.3072 32.4547C76.0854 33.233 76.7028 34.1569 77.1239 35.1737C77.5451 36.1905 77.7619 37.2803 77.7619 38.381C77.7619 39.4816 77.5451 40.5714 77.1239 41.5882C76.7028 42.605 76.0854 43.5289 75.3072 44.3072C74.5289 45.0854 73.605 45.7028 72.5882 46.1239C71.5714 46.5451 70.4816 46.7619 69.381 46.7619C67.1582 46.7619 65.0265 45.8789 63.4547 44.3072C61.883 42.7354 61 40.6037 61 38.381C61 36.1582 61.883 34.0265 63.4547 32.4547C65.0265 30.883 67.1582 30 69.381 30V30ZM85.003 39.1429C84.0929 39.1429 83.2201 39.5044 82.5765 40.148C81.933 40.7915 81.5714 41.6644 81.5714 42.5745C81.5714 43.4846 81.933 44.3574 82.5765 45.001C83.2201 45.6445 84.0929 46.0061 85.003 46.0061C85.9132 46.0061 86.786 45.6445 87.4296 45.001C88.0731 44.3574 88.4347 43.4846 88.4347 42.5745C88.4347 41.6644 88.0731 40.7915 87.4296 40.148C86.786 39.5044 85.9132 39.1429 85.003 39.1429V39.1429ZM85.003 41.4286C85.307 41.4286 85.5984 41.5493 85.8133 41.7642C86.0282 41.9791 86.149 42.2706 86.149 42.5745C86.149 42.8784 86.0282 43.1699 85.8133 43.3848C85.5984 43.5997 85.307 43.7204 85.003 43.7204C84.6991 43.7204 84.4077 43.5997 84.1928 43.3848C83.9779 43.1699 83.8571 42.8784 83.8571 42.5745C83.8571 42.2706 83.9779 41.9791 84.1928 41.7642C84.4077 41.5493 84.6991 41.4286 85.003 41.4286V41.4286ZM69.381 33.0476L69.2438 33.0583C69.0916 33.0861 68.9514 33.1596 68.842 33.269C68.7326 33.3785 68.6591 33.5186 68.6312 33.6709L68.619 33.8095V37.619H64.8065L64.6693 37.6312C64.5171 37.659 64.3769 37.7326 64.2675 37.842C64.1581 37.9514 64.0846 38.0916 64.0568 38.2438L64.0446 38.381L64.0568 38.5181C64.0846 38.6703 64.1581 38.8105 64.2675 38.9199C64.3769 39.0293 64.5171 39.1029 64.6693 39.1307L64.8065 39.1429H68.619V42.957L68.6312 43.0941C68.6591 43.2463 68.7326 43.3865 68.842 43.4959C68.9514 43.6053 69.0916 43.6789 69.2438 43.7067L69.381 43.7204L69.5181 43.7067C69.6703 43.6789 69.8105 43.6053 69.9199 43.4959C70.0293 43.3865 70.1029 43.2463 70.1307 43.0941L70.1429 42.957V39.1429H73.96L74.0971 39.1307C74.2494 39.1029 74.3895 39.0293 74.499 38.9199C74.6084 38.8105 74.6819 38.6703 74.7097 38.5181L74.7219 38.381L74.7097 38.2438C74.6818 38.0914 74.6081 37.9511 74.4983 37.8416C74.3886 37.7322 74.2481 37.6588 74.0956 37.6312L73.9585 37.619H70.1429V33.8095L70.1307 33.6724C70.1031 33.5199 70.0297 33.3794 69.9203 33.2697C69.8108 33.1599 69.6705 33.0862 69.5181 33.0583L69.381 33.0476Z" fill="#5856D6"/>
<path d="M45.363 83L49.801 73.2H51.187L55.639 83H54.169L50.207 73.984H50.767L46.805 83H45.363ZM47.253 80.55L47.631 79.43H53.147L53.553 80.55H47.253ZM59.9025 83.084C59.1838 83.084 58.5398 82.9253 57.9705 82.608C57.4105 82.2907 56.9672 81.8473 56.6405 81.278C56.3138 80.7087 56.1505 80.046 56.1505 79.29C56.1505 78.534 56.3138 77.876 56.6405 77.316C56.9672 76.7467 57.4105 76.3033 57.9705 75.986C58.5398 75.6687 59.1838 75.51 59.9025 75.51C60.5278 75.51 61.0925 75.65 61.5965 75.93C62.1005 76.21 62.5018 76.63 62.8005 77.19C63.1085 77.75 63.2625 78.45 63.2625 79.29C63.2625 80.13 63.1132 80.83 62.8145 81.39C62.5252 81.95 62.1285 82.3747 61.6245 82.664C61.1205 82.944 60.5465 83.084 59.9025 83.084ZM60.0145 81.908C60.4812 81.908 60.9012 81.8007 61.2745 81.586C61.6572 81.3713 61.9558 81.068 62.1705 80.676C62.3945 80.2747 62.5065 79.8127 62.5065 79.29C62.5065 78.758 62.3945 78.3007 62.1705 77.918C61.9558 77.526 61.6572 77.2227 61.2745 77.008C60.9012 76.7933 60.4812 76.686 60.0145 76.686C59.5385 76.686 59.1138 76.7933 58.7405 77.008C58.3672 77.2227 58.0685 77.526 57.8445 77.918C57.6205 78.3007 57.5085 78.758 57.5085 79.29C57.5085 79.8127 57.6205 80.2747 57.8445 80.676C58.0685 81.068 58.3672 81.3713 58.7405 81.586C59.1138 81.8007 59.5385 81.908 60.0145 81.908ZM62.5485 83V80.998L62.6325 79.276L62.4925 77.554V72.612H63.8365V83H62.5485ZM69.4455 83.084C68.7268 83.084 68.0828 82.9253 67.5135 82.608C66.9535 82.2907 66.5101 81.8473 66.1835 81.278C65.8568 80.7087 65.6935 80.046 65.6935 79.29C65.6935 78.534 65.8568 77.876 66.1835 77.316C66.5101 76.7467 66.9535 76.3033 67.5135 75.986C68.0828 75.6687 68.7268 75.51 69.4455 75.51C70.0708 75.51 70.6355 75.65 71.1395 75.93C71.6435 76.21 72.0448 76.63 72.3435 77.19C72.6515 77.75 72.8055 78.45 72.8055 79.29C72.8055 80.13 72.6561 80.83 72.3575 81.39C72.0681 81.95 71.6715 82.3747 71.1675 82.664C70.6635 82.944 70.0895 83.084 69.4455 83.084ZM69.5575 81.908C70.0241 81.908 70.4441 81.8007 70.8175 81.586C71.2001 81.3713 71.4988 81.068 71.7135 80.676C71.9375 80.2747 72.0495 79.8127 72.0495 79.29C72.0495 78.758 71.9375 78.3007 71.7135 77.918C71.4988 77.526 71.2001 77.2227 70.8175 77.008C70.4441 76.7933 70.0241 76.686 69.5575 76.686C69.0815 76.686 68.6568 76.7933 68.2835 77.008C67.9101 77.2227 67.6115 77.526 67.3875 77.918C67.1635 78.3007 67.0515 78.758 67.0515 79.29C67.0515 79.8127 67.1635 80.2747 67.3875 80.676C67.6115 81.068 67.9101 81.3713 68.2835 81.586C68.6568 81.8007 69.0815 81.908 69.5575 81.908ZM72.0915 83V80.998L72.1755 79.276L72.0355 77.554V72.612H73.3795V83H72.0915ZM79.6822 83V75.58H81.0262V83H79.6822ZM80.3542 74.152C80.0929 74.152 79.8735 74.068 79.6962 73.9C79.5282 73.732 79.4442 73.5267 79.4442 73.284C79.4442 73.032 79.5282 72.822 79.6962 72.654C79.8735 72.486 80.0929 72.402 80.3542 72.402C80.6155 72.402 80.8302 72.486 80.9982 72.654C81.1755 72.8127 81.2642 73.0133 81.2642 73.256C81.2642 73.508 81.1802 73.7227 81.0122 73.9C80.8442 74.068 80.6249 74.152 80.3542 74.152ZM86.8264 83.084C86.0704 83.084 85.3937 82.9207 84.7964 82.594C84.2084 82.2673 83.7464 81.8193 83.4104 81.25C83.0744 80.6807 82.9064 80.0273 82.9064 79.29C82.9064 78.5527 83.0744 77.8993 83.4104 77.33C83.7464 76.7607 84.2084 76.3173 84.7964 76C85.3937 75.6733 86.0704 75.51 86.8264 75.51C87.4984 75.51 88.0957 75.6453 88.6184 75.916C89.1504 76.1773 89.561 76.5693 89.8504 77.092L88.8284 77.75C88.5857 77.386 88.287 77.12 87.9324 76.952C87.587 76.7747 87.2137 76.686 86.8124 76.686C86.327 76.686 85.893 76.7933 85.5104 77.008C85.1277 77.2227 84.8244 77.526 84.6004 77.918C84.3764 78.3007 84.2644 78.758 84.2644 79.29C84.2644 79.822 84.3764 80.284 84.6004 80.676C84.8244 81.068 85.1277 81.3713 85.5104 81.586C85.893 81.8007 86.327 81.908 86.8124 81.908C87.2137 81.908 87.587 81.824 87.9324 81.656C88.287 81.4787 88.5857 81.208 88.8284 80.844L89.8504 81.488C89.561 82.0013 89.1504 82.398 88.6184 82.678C88.0957 82.9487 87.4984 83.084 86.8264 83.084ZM94.659 83.084C93.9124 83.084 93.2497 82.9207 92.671 82.594C92.0924 82.2673 91.635 81.8193 91.299 81.25C90.963 80.6713 90.795 80.018 90.795 79.29C90.795 78.5527 90.963 77.8993 91.299 77.33C91.635 76.7607 92.0924 76.3173 92.671 76C93.2497 75.6733 93.9124 75.51 94.659 75.51C95.3964 75.51 96.0544 75.6733 96.633 76C97.221 76.3173 97.6784 76.7607 98.005 77.33C98.341 77.89 98.509 78.5433 98.509 79.29C98.509 80.0273 98.341 80.6807 98.005 81.25C97.6784 81.8193 97.221 82.2673 96.633 82.594C96.0544 82.9207 95.3964 83.084 94.659 83.084ZM94.659 81.908C95.135 81.908 95.5597 81.8007 95.933 81.586C96.3157 81.3713 96.6144 81.068 96.829 80.676C97.0437 80.2747 97.151 79.8127 97.151 79.29C97.151 78.758 97.0437 78.3007 96.829 77.918C96.6144 77.526 96.3157 77.2227 95.933 77.008C95.5597 76.7933 95.135 76.686 94.659 76.686C94.183 76.686 93.7584 76.7933 93.385 77.008C93.0117 77.2227 92.713 77.526 92.489 77.918C92.265 78.3007 92.153 78.758 92.153 79.29C92.153 79.8127 92.265 80.2747 92.489 80.676C92.713 81.068 93.0117 81.3713 93.385 81.586C93.7584 81.8007 94.183 81.908 94.659 81.908ZM104.33 75.51C104.936 75.51 105.468 75.6267 105.926 75.86C106.392 76.0933 106.756 76.448 107.018 76.924C107.279 77.4 107.41 78.002 107.41 78.73V83H106.066V78.884C106.066 78.1653 105.888 77.624 105.534 77.26C105.188 76.896 104.698 76.714 104.064 76.714C103.588 76.714 103.172 76.8073 102.818 76.994C102.463 77.1807 102.188 77.456 101.992 77.82C101.805 78.184 101.712 78.6367 101.712 79.178V83H100.368V75.58H101.656V77.582L101.446 77.05C101.688 76.5647 102.062 76.1867 102.566 75.916C103.07 75.6453 103.658 75.51 104.33 75.51Z" fill="#5856D6"/>
</svg>
