<svg width="28" height="18" viewBox="0 0 28 18" fill="none" xmlns="http://www.w3.org/2000/svg">
<rect width="27" height="3" rx="1.5" fill="#5856D6"/>
<rect y="7" width="13" height="3" rx="1.5" fill="#5856D6"/>
<rect y="14" width="9" height="3" rx="1.5" fill="#5856D6"/>
<path d="M16.556 6.02988C17.2404 5.41674 18.0444 4.95188 18.9173 4.66455C19.1669 4.97723 19.4837 5.22964 19.8443 5.403C20.2049 5.57636 20.5999 5.66621 21 5.66588C21.4 5.66621 21.795 5.57636 22.1556 5.403C22.5162 5.22964 22.833 4.97723 23.0826 4.66455C23.9555 4.95188 24.7595 5.41674 25.444 6.02988C25.2983 6.40218 25.2384 6.80251 25.2686 7.20114C25.2988 7.59978 25.4185 7.98648 25.6186 8.33255C25.8183 8.67928 26.0937 8.97652 26.4241 9.20217C26.7546 9.42781 27.1316 9.57606 27.5273 9.63588C27.7143 10.5352 27.7143 11.4633 27.5273 12.3626C26.754 12.4812 26.0406 12.9359 25.6186 13.6659C25.4184 14.012 25.2987 14.3989 25.2684 14.7976C25.2382 15.1964 25.2982 15.5968 25.444 15.9692C24.7594 16.5821 23.9554 17.0468 23.0826 17.3339C22.833 17.0213 22.5161 16.769 22.1555 16.5958C21.795 16.4226 21.4 16.3328 21 16.3332C20.5999 16.3329 20.2049 16.4227 19.8443 16.5961C19.4837 16.7695 19.1669 17.0219 18.9173 17.3346C18.0445 17.0474 17.2405 16.5828 16.556 15.9699C16.7017 15.5975 16.7617 15.197 16.7315 14.7983C16.7012 14.3995 16.5815 14.0127 16.3813 13.6666C16.1815 13.3199 15.9061 13.0228 15.5757 12.7973C15.2452 12.5718 14.8682 12.4236 14.4726 12.3639C14.2855 11.4644 14.2855 10.536 14.4726 9.63655C14.8683 9.57673 15.2453 9.42848 15.5758 9.20283C15.9062 8.97718 16.1816 8.67994 16.3813 8.33322C16.5814 7.98715 16.7011 7.60045 16.7313 7.20181C16.7615 6.80318 16.7016 6.40285 16.556 6.03055V6.02988ZM22 12.7312C22.2292 12.6009 22.4305 12.4264 22.5921 12.218C22.7537 12.0095 22.8725 11.7711 22.9416 11.5166C23.0107 11.2621 23.0288 10.9964 22.9948 10.7348C22.9608 10.4732 22.8754 10.221 22.7435 9.99256C22.6116 9.76414 22.4358 9.56406 22.2263 9.40385C22.0168 9.24363 21.7776 9.12644 21.5226 9.05902C21.2676 8.9916 21.0018 8.97529 20.7405 9.01102C20.4792 9.04675 20.2275 9.13382 20 9.26722C19.5443 9.53432 19.2129 9.97079 19.0779 10.4814C18.9429 10.992 19.0153 11.5352 19.2794 11.9926C19.5435 12.45 19.9777 12.7843 20.4874 12.9227C20.9971 13.0611 21.5408 12.9923 22 12.7312Z" fill="#5856D6"/>
</svg>
