<svg width="24" height="24" viewBox="0 0 24 24" fill="none" xmlns="http://www.w3.org/2000/svg">
<path fill-rule="evenodd" clip-rule="evenodd" d="M11.0629 1.45607C11.3432 1.27841 11.6681 1.18408 11.9999 1.18408C12.3317 1.18408 12.6567 1.27841 12.9369 1.45607L21.3199 6.77207C21.569 6.92997 21.7741 7.14826 21.9162 7.40665C22.0584 7.66504 22.1329 7.95516 22.1329 8.25007C22.1329 8.54497 22.0584 8.83509 21.9162 9.09348C21.7741 9.35188 21.569 9.57016 21.3199 9.72807L12.9369 15.0441C12.6567 15.2217 12.3317 15.316 11.9999 15.316C11.6681 15.316 11.3432 15.2217 11.0629 15.0441L2.67992 9.72807C2.43085 9.57016 2.22573 9.35188 2.0836 9.09348C1.94147 8.83509 1.86694 8.54497 1.86694 8.25007C1.86694 7.95516 1.94147 7.66504 2.0836 7.40665C2.22573 7.14826 2.43085 6.92997 2.67992 6.77207L11.0629 1.45607ZM12.1339 2.72307C12.0939 2.69763 12.0474 2.68412 11.9999 2.68412C11.9525 2.68412 11.906 2.69763 11.8659 2.72307L3.48292 8.03907C3.4474 8.06164 3.41815 8.09281 3.39789 8.12969C3.37763 8.16658 3.367 8.20798 3.367 8.25007C3.367 8.29215 3.37763 8.33355 3.39789 8.37044C3.41815 8.40732 3.4474 8.4385 3.48292 8.46107L11.8659 13.7771C11.906 13.8025 11.9525 13.816 11.9999 13.816C12.0474 13.816 12.0939 13.8025 12.1339 13.7771L20.5169 8.46107C20.5524 8.4385 20.5817 8.40732 20.6019 8.37044C20.6222 8.33355 20.6328 8.29215 20.6328 8.25007C20.6328 8.20798 20.6222 8.16658 20.6019 8.12969C20.5817 8.09281 20.5524 8.06164 20.5169 8.03907L12.1339 2.72307Z" fill="black"/>
<path fill-rule="evenodd" clip-rule="evenodd" d="M1.86706 12.3239C1.91978 12.2407 1.98838 12.1687 2.06892 12.112C2.14947 12.0553 2.2404 12.0151 2.33651 11.9935C2.43262 11.972 2.53203 11.9696 2.62906 11.9865C2.7261 12.0033 2.81886 12.0392 2.90206 12.0919L11.8661 17.7769C11.9061 17.8023 11.9526 17.8158 12.0001 17.8158C12.0475 17.8158 12.094 17.8023 12.1341 17.7769L21.0981 12.0919C21.1812 12.0391 21.274 12.0032 21.3711 11.9863C21.4682 11.9693 21.5676 11.9717 21.6638 11.9932C21.7599 12.0147 21.8509 12.0549 21.9315 12.1116C22.0121 12.1682 22.0808 12.2402 22.1336 12.3234C22.1863 12.4066 22.2222 12.4993 22.2392 12.5964C22.2561 12.6935 22.2538 12.7929 22.2323 12.8891C22.2108 12.9852 22.1705 13.0762 22.1139 13.1568C22.0572 13.2374 21.9853 13.3061 21.9021 13.3589L12.9371 19.0439C12.6568 19.2215 12.3319 19.3159 12.0001 19.3159C11.6683 19.3159 11.3433 19.2215 11.0631 19.0439L2.09806 13.3589C1.9302 13.2522 1.81158 13.0833 1.76826 12.8892C1.72494 12.6951 1.76048 12.4918 1.86706 12.3239Z" fill="black"/>
<path fill-rule="evenodd" clip-rule="evenodd" d="M1.86706 16.3239C1.91978 16.2407 1.98838 16.1687 2.06892 16.112C2.14947 16.0553 2.2404 16.0151 2.33651 15.9935C2.43262 15.972 2.53203 15.9696 2.62906 15.9865C2.7261 16.0033 2.81886 16.0392 2.90206 16.0919L11.8661 21.7769C11.9061 21.8023 11.9526 21.8158 12.0001 21.8158C12.0475 21.8158 12.094 21.8023 12.1341 21.7769L21.0981 16.0919C21.2661 15.9853 21.4696 15.9498 21.6638 15.9932C21.8579 16.0366 22.0269 16.1554 22.1336 16.3234C22.2402 16.4914 22.2757 16.6949 22.2323 16.8891C22.1889 17.0833 22.0701 17.2523 21.9021 17.3589L12.9371 23.0439C12.6568 23.2215 12.3319 23.3159 12.0001 23.3159C11.6683 23.3159 11.3433 23.2215 11.0631 23.0439L2.09806 17.3589C1.9302 17.2522 1.81158 17.0833 1.76826 16.8892C1.72494 16.6951 1.76048 16.4918 1.86706 16.3239Z" fill="black"/>
</svg>
