<svg width="24" height="24" viewBox="0 0 24 24" fill="none" xmlns="http://www.w3.org/2000/svg">
<path fill-rule="evenodd" clip-rule="evenodd" d="M10.6829 0.588174C11.083 0.356108 11.5374 0.233887 11.9999 0.233887C12.4625 0.233887 12.9168 0.356108 13.3169 0.588174L20.8214 4.94117C22.0664 5.66267 22.0664 7.46117 20.8214 8.18417L13.3169 12.5372C12.9168 12.7692 12.4625 12.8915 11.9999 12.8915C11.5374 12.8915 11.083 12.7692 10.6829 12.5372L3.1784 8.18417C2.89444 8.0193 2.65876 7.78275 2.49493 7.49819C2.3311 7.21362 2.24487 6.89103 2.24487 6.56267C2.24487 6.23432 2.3311 5.91172 2.49493 5.62716C2.65876 5.3426 2.89444 5.10605 3.1784 4.94117L10.6829 0.588174ZM12.1874 2.53517C12.1304 2.50226 12.0657 2.48493 11.9999 2.48493C11.9341 2.48493 11.8694 2.50226 11.8124 2.53517L4.8674 6.56267L11.8124 10.5902C11.8694 10.6231 11.9341 10.6404 11.9999 10.6404C12.0657 10.6404 12.1304 10.6231 12.1874 10.5902L19.1324 6.56267L12.1874 2.53517ZM2.4014 11.6837C2.47546 11.5558 2.57398 11.4438 2.69133 11.354C2.80868 11.2643 2.94256 11.1985 3.08534 11.1605C3.22811 11.1224 3.37697 11.1129 3.52343 11.1324C3.66989 11.1519 3.81107 11.2001 3.9389 11.2742L11.8124 15.8402C11.8694 15.8731 11.9341 15.8904 11.9999 15.8904C12.0657 15.8904 12.1304 15.8731 12.1874 15.8402L20.0609 11.2742C20.3191 11.1246 20.6261 11.0837 20.9145 11.1605C21.2028 11.2373 21.4488 11.4255 21.5984 11.6837C21.748 11.9419 21.7889 12.2489 21.7121 12.5372C21.6353 12.8256 21.4471 13.0716 21.1889 13.2212L13.3169 17.7872C12.9168 18.0192 12.4625 18.1415 11.9999 18.1415C11.5374 18.1415 11.083 18.0192 10.6829 17.7872L2.8109 13.2212C2.68293 13.1472 2.57078 13.0488 2.48086 12.9315C2.39093 12.8142 2.32501 12.6804 2.28684 12.5376C2.24867 12.3948 2.23901 12.2459 2.25841 12.0994C2.27781 11.9529 2.32589 11.8116 2.3999 11.6837H2.4014ZM2.4014 16.9337C2.47546 16.8058 2.57398 16.6938 2.69133 16.604C2.80868 16.5143 2.94256 16.4485 3.08534 16.4105C3.22811 16.3724 3.37697 16.3629 3.52343 16.3824C3.66989 16.4019 3.81107 16.4501 3.9389 16.5242L11.8124 21.0902C11.8694 21.1231 11.9341 21.1404 11.9999 21.1404C12.0657 21.1404 12.1304 21.1231 12.1874 21.0902L20.0609 16.5242C20.3191 16.3746 20.6261 16.3337 20.9145 16.4105C21.2028 16.4873 21.4488 16.6755 21.5984 16.9337C21.748 17.1919 21.7889 17.4989 21.7121 17.7872C21.6353 18.0756 21.4471 18.3216 21.1889 18.4712L13.3169 23.0372C12.9168 23.2692 12.4625 23.3915 11.9999 23.3915C11.5374 23.3915 11.083 23.2692 10.6829 23.0372L2.8109 18.4712C2.68306 18.3971 2.57105 18.2986 2.48127 18.1812C2.3915 18.0639 2.32572 17.93 2.2877 17.7872C2.24967 17.6445 2.24014 17.4956 2.25965 17.3491C2.27916 17.2027 2.32733 17.0615 2.4014 16.9337Z" fill="black"/>
</svg>
