<svg width="24" height="24" viewBox="0 0 24 24" fill="none" xmlns="http://www.w3.org/2000/svg">
<path d="M10.5 11.25C10.5 11.0511 10.579 10.8603 10.7197 10.7197C10.8603 10.579 11.0511 10.5 11.25 10.5H15.75C15.9489 10.5 16.1397 10.579 16.2803 10.7197C16.421 10.8603 16.5 11.0511 16.5 11.25C16.5 11.4489 16.421 11.6397 16.2803 11.7803C16.1397 11.921 15.9489 12 15.75 12H11.25C11.0511 12 10.8603 11.921 10.7197 11.7803C10.579 11.6397 10.5 11.4489 10.5 11.25ZM10.5 15.75C10.5 15.5511 10.579 15.3603 10.7197 15.2197C10.8603 15.079 11.0511 15 11.25 15H15.75C15.9489 15 16.1397 15.079 16.2803 15.2197C16.421 15.3603 16.5 15.5511 16.5 15.75C16.5 15.9489 16.421 16.1397 16.2803 16.2803C16.1397 16.421 15.9489 16.5 15.75 16.5H11.25C11.0511 16.5 10.8603 16.421 10.7197 16.2803C10.579 16.1397 10.5 15.9489 10.5 15.75ZM8.25 12C8.44891 12 8.63968 11.921 8.78033 11.7803C8.92098 11.6397 9 11.4489 9 11.25C9 11.0511 8.92098 10.8603 8.78033 10.7197C8.63968 10.579 8.44891 10.5 8.25 10.5C8.05109 10.5 7.86032 10.579 7.71967 10.7197C7.57902 10.8603 7.5 11.0511 7.5 11.25C7.5 11.4489 7.57902 11.6397 7.71967 11.7803C7.86032 11.921 8.05109 12 8.25 12V12ZM8.25 16.5C8.44891 16.5 8.63968 16.421 8.78033 16.2803C8.92098 16.1397 9 15.9489 9 15.75C9 15.5511 8.92098 15.3603 8.78033 15.2197C8.63968 15.079 8.44891 15 8.25 15C8.05109 15 7.86032 15.079 7.71967 15.2197C7.57902 15.3603 7.5 15.5511 7.5 15.75C7.5 15.9489 7.57902 16.1397 7.71967 16.2803C7.86032 16.421 8.05109 16.5 8.25 16.5V16.5ZM7.6275 3C7.78266 2.56113 8.07012 2.18119 8.45026 1.91254C8.8304 1.64389 9.28451 1.49976 9.75 1.5H14.25C14.7155 1.49976 15.1696 1.64389 15.5497 1.91254C15.9299 2.18119 16.2173 2.56113 16.3725 3H17.25C17.8467 3 18.419 3.23705 18.841 3.65901C19.2629 4.08097 19.5 4.65326 19.5 5.25V20.25C19.5 20.8467 19.2629 21.419 18.841 21.841C18.419 22.2629 17.8467 22.5 17.25 22.5H6.75C6.15326 22.5 5.58097 22.2629 5.15901 21.841C4.73705 21.419 4.5 20.8467 4.5 20.25V5.25C4.5 4.65326 4.73705 4.08097 5.15901 3.65901C5.58097 3.23705 6.15326 3 6.75 3H7.6275ZM9.75 3C9.55109 3 9.36032 3.07902 9.21967 3.21967C9.07902 3.36032 9 3.55109 9 3.75C9 3.94891 9.07902 4.13968 9.21967 4.28033C9.36032 4.42098 9.55109 4.5 9.75 4.5H14.25C14.4489 4.5 14.6397 4.42098 14.7803 4.28033C14.921 4.13968 15 3.94891 15 3.75C15 3.55109 14.921 3.36032 14.7803 3.21967C14.6397 3.07902 14.4489 3 14.25 3H9.75ZM7.6275 4.5H6.75C6.55109 4.5 6.36032 4.57902 6.21967 4.71967C6.07902 4.86032 6 5.05109 6 5.25V20.25C6 20.4489 6.07902 20.6397 6.21967 20.7803C6.36032 20.921 6.55109 21 6.75 21H17.25C17.4489 21 17.6397 20.921 17.7803 20.7803C17.921 20.6397 18 20.4489 18 20.25V5.25C18 5.05109 17.921 4.86032 17.7803 4.71967C17.6397 4.57902 17.4489 4.5 17.25 4.5H16.3725C16.2173 4.93887 15.9299 5.31881 15.5497 5.58746C15.1696 5.85611 14.7155 6.00024 14.25 6H9.75C9.28451 6.00024 8.8304 5.85611 8.45026 5.58746C8.07012 5.31881 7.78266 4.93887 7.6275 4.5V4.5Z" fill="black"/>
</svg>
