<svg width="24" height="24" viewBox="0 0 24 24" fill="none" xmlns="http://www.w3.org/2000/svg">
<path d="M21.624 13.8542C21.8102 13.9913 21.949 14.183 22.0212 14.4026C22.0934 14.6222 22.0953 14.8589 22.0268 15.0797C21.5513 16.5996 20.7427 17.9943 19.6598 19.1619C19.5034 19.3296 19.2989 19.4446 19.0745 19.4912C18.85 19.5378 18.6167 19.5137 18.4065 19.4222L16.9403 18.7787C16.78 18.7074 16.6054 18.6745 16.4303 18.6827C16.2557 18.6928 16.0861 18.7443 15.9353 18.8327C15.7842 18.9201 15.656 19.0421 15.5613 19.1886C15.4665 19.3352 15.4078 19.5021 15.39 19.6757L15.2138 21.2732C15.1884 21.5006 15.0933 21.7146 14.9416 21.8859C14.7899 22.0573 14.5889 22.1775 14.3663 22.2302C12.8093 22.6014 11.1863 22.6014 9.62925 22.2302C9.40812 22.1767 9.2087 22.0567 9.05784 21.8864C8.90698 21.7161 8.81193 21.5037 8.7855 21.2777L8.60925 19.6832C8.57878 19.4115 8.44929 19.1605 8.2455 18.9782C8.08619 18.8377 7.89035 18.7452 7.68064 18.7113C7.47094 18.6775 7.25593 18.7037 7.0605 18.7869L5.59425 19.4312C5.38468 19.5227 5.15193 19.5471 4.92795 19.501C4.70396 19.4549 4.49972 19.3407 4.34325 19.1739C3.25855 18.0051 2.44881 16.6085 1.97325 15.0864C1.90507 14.8659 1.90713 14.6297 1.97915 14.4104C2.05118 14.1911 2.1896 13.9996 2.37525 13.8624L3.669 12.9062C3.81037 12.8025 3.92533 12.667 4.00458 12.5107C4.08382 12.3543 4.12511 12.1815 4.12511 12.0062C4.12511 11.8309 4.08382 11.6581 4.00458 11.5017C3.92533 11.3453 3.81037 11.2098 3.669 11.1062L2.37525 10.1514C2.19059 10.015 2.05277 9.82472 1.98077 9.60671C1.90878 9.38871 1.90615 9.15375 1.97325 8.93419C2.44868 7.41333 3.25818 6.01804 4.3425 4.85044C4.4475 4.73719 4.575 4.64719 4.7175 4.58719C4.85631 4.5284 5.00551 4.49811 5.15625 4.49811C5.307 4.49811 5.4562 4.5284 5.595 4.58719L7.05525 5.23069C7.2159 5.29969 7.39048 5.33012 7.565 5.31953C7.73952 5.30894 7.90913 5.25763 8.06026 5.16971C8.21138 5.08179 8.33982 4.9597 8.43529 4.81323C8.53075 4.66675 8.59059 4.49995 8.61 4.32619L8.787 2.73469C8.81275 2.50488 8.90952 2.28883 9.06385 2.11662C9.21818 1.94441 9.42238 1.82462 9.648 1.77394C10.4231 1.60293 11.2138 1.51195 12.0075 1.50244C12.7965 1.51144 13.5825 1.60219 14.3528 1.77394C14.5789 1.82427 14.7835 1.94426 14.9378 2.11702C15.0922 2.28978 15.1884 2.5066 15.213 2.73694L15.39 4.32694C15.4088 4.50044 15.4681 4.66709 15.5632 4.81341C15.6583 4.95974 15.7865 5.08163 15.9374 5.16925C16.0883 5.25687 16.2577 5.30774 16.4319 5.31776C16.6061 5.32779 16.7803 5.29667 16.9403 5.22694L18.3998 4.58419C18.6102 4.49261 18.8439 4.46839 19.0687 4.51485C19.2934 4.56131 19.4983 4.67618 19.6553 4.84369C20.7389 6.01007 21.5479 7.40412 22.023 8.92369C22.0917 9.14402 22.0898 9.3803 22.0176 9.59949C21.9453 9.81868 21.8064 10.0098 21.6203 10.1462L20.3303 11.1009C20.1883 11.2037 20.0727 11.3385 19.9929 11.4945C19.9131 11.6505 19.8713 11.8231 19.871 11.9983C19.8707 12.1735 19.9119 12.3463 19.9912 12.5025C20.0705 12.6588 20.1857 12.794 20.3273 12.8972L21.624 13.8542ZM12 15.0002C12.7957 15.0002 13.5587 14.6841 14.1213 14.1215C14.6839 13.5589 15 12.7958 15 12.0002C15 11.2045 14.6839 10.4415 14.1213 9.87887C13.5587 9.31626 12.7957 9.00019 12 9.00019C11.2044 9.00019 10.4413 9.31626 9.87868 9.87887C9.31607 10.4415 9 11.2045 9 12.0002C9 12.7958 9.31607 13.5589 9.87868 14.1215C10.4413 14.6841 11.2044 15.0002 12 15.0002Z" fill="black"/>
</svg>
