<svg width="24" height="24" viewBox="0 0 24 24" fill="none" xmlns="http://www.w3.org/2000/svg">
<path d="M12.0001 8.14293C11.4935 8.14293 10.992 8.24269 10.524 8.43653C10.056 8.63037 9.63082 8.91449 9.27265 9.27266C8.91448 9.63083 8.63037 10.056 8.43653 10.524C8.24269 10.992 8.14292 11.4935 8.14292 12.0001C8.14292 12.5066 8.24269 13.0082 8.43653 13.4761C8.63037 13.9441 8.91448 14.3693 9.27265 14.7275C9.63082 15.0856 10.056 15.3698 10.524 15.5636C10.992 15.7574 11.4935 15.8572 12.0001 15.8572C13.023 15.8572 14.0041 15.4508 14.7275 14.7275C15.4508 14.0041 15.8572 13.023 15.8572 12.0001C15.8572 10.9771 15.4508 9.99601 14.7275 9.27266C14.0041 8.5493 13.023 8.14293 12.0001 8.14293V8.14293ZM9.42864 12.0001C9.42864 11.6624 9.49515 11.328 9.62437 11.016C9.7536 10.704 9.94301 10.4206 10.1818 10.1818C10.4206 9.94302 10.704 9.75361 11.016 9.62438C11.328 9.49515 11.6624 9.42864 12.0001 9.42864C12.3377 9.42864 12.6721 9.49515 12.9841 9.62438C13.2961 9.75361 13.5796 9.94302 13.8183 10.1818C14.0571 10.4206 14.2465 10.704 14.3758 11.016C14.505 11.328 14.5715 11.6624 14.5715 12.0001C14.5715 12.6821 14.3006 13.3361 13.8183 13.8183C13.3361 14.3006 12.682 14.5715 12.0001 14.5715C11.3181 14.5715 10.664 14.3006 10.1818 13.8183C9.69955 13.3361 9.42864 12.6821 9.42864 12.0001V12.0001ZM18.6086 19.1958L17.1275 18.5452C16.9167 18.4536 16.6874 18.4126 16.4579 18.4254C16.2284 18.4382 16.0051 18.5045 15.8058 18.6189C15.4055 18.8504 15.1501 19.2592 15.0995 19.7195L14.9212 21.3309C14.9032 21.4929 14.8357 21.6453 14.7279 21.7674C14.62 21.8895 14.4771 21.9754 14.3186 22.0132C12.7937 22.3767 11.2047 22.3767 9.67978 22.0132C9.52147 21.9752 9.37873 21.8893 9.27105 21.7672C9.16336 21.6451 9.09597 21.4927 9.07806 21.3309L8.89978 19.7221C8.87418 19.4957 8.79587 19.2784 8.67113 19.0877C8.54639 18.897 8.37869 18.7382 8.18149 18.6241C7.9845 18.5101 7.76348 18.4441 7.53628 18.4313C7.30907 18.4185 7.08204 18.4593 6.87349 18.5504L5.39235 19.2009C5.24262 19.2667 5.07615 19.2843 4.91598 19.2513C4.7558 19.2183 4.60986 19.1363 4.49835 19.0166C3.43229 17.8742 2.639 16.5051 2.17806 15.0121C2.1296 14.8551 2.13112 14.687 2.18241 14.531C2.2337 14.375 2.33223 14.2388 2.46435 14.1412L3.77321 13.1744C3.95747 13.039 4.10728 12.8621 4.21055 12.6581C4.31381 12.4541 4.36761 12.2287 4.36761 12.0001C4.36761 11.7714 4.31381 11.546 4.21055 11.342C4.10728 11.138 3.95747 10.9612 3.77321 10.8258L2.46435 9.8615C2.33206 9.76388 2.23342 9.62752 2.18212 9.47132C2.13082 9.31512 2.1294 9.14683 2.17806 8.98978C2.63995 7.49807 3.43382 6.13041 4.50006 4.9895C4.61168 4.87002 4.75767 4.78818 4.91783 4.75532C5.078 4.72245 5.24442 4.74019 5.39406 4.80607L6.86835 5.45493C7.07812 5.54521 7.30611 5.58514 7.53408 5.57151C7.76205 5.55788 7.98366 5.49108 8.18119 5.37645C8.37871 5.26182 8.54665 5.10254 8.67158 4.91136C8.79651 4.72019 8.87496 4.50242 8.90064 4.2755L9.08064 2.66578C9.09876 2.50203 9.16756 2.34802 9.27742 2.22524C9.38729 2.10247 9.53275 2.01706 9.69349 1.98093C10.4486 1.81293 11.2192 1.72378 12.0112 1.71436C12.7843 1.72293 13.5541 1.81293 14.3084 1.98093C14.4693 2.01699 14.6149 2.10249 14.7248 2.22546C14.8347 2.34842 14.9034 2.50269 14.9212 2.66664L15.1004 4.27636C15.139 4.63334 15.308 4.96351 15.575 5.20361C15.8419 5.4437 16.1881 5.57684 16.5472 5.5775C16.7469 5.5775 16.9449 5.5355 17.1301 5.45407L18.6044 4.80521C18.754 4.73933 18.9204 4.7216 19.0806 4.75446C19.2407 4.78732 19.3867 4.86916 19.4983 4.98864C20.5643 6.1296 21.3579 7.49727 21.8195 8.98893C21.868 9.14576 21.8667 9.31382 21.8155 9.46983C21.7644 9.62585 21.666 9.76212 21.5341 9.85978L20.2269 10.8258C19.8541 11.1001 19.6286 11.5364 19.6286 12.0001C19.6286 12.4629 19.8541 12.8992 20.2278 13.1744L21.5358 14.1395C21.8066 14.3401 21.9215 14.6898 21.8221 15.0112C21.3605 16.5027 20.5673 17.8703 19.5018 19.0115C19.3903 19.1311 19.2443 19.2131 19.0842 19.2461C18.924 19.2792 18.7575 19.2616 18.6078 19.1958H18.6086ZM13.9398 19.0261C14.1443 18.3855 14.5796 17.8439 15.1612 17.5064C15.5353 17.2908 15.9548 17.166 16.3859 17.142C16.8171 17.1181 17.2478 17.1956 17.6435 17.3684L18.7955 17.8741C19.5355 17.0173 20.1082 16.0294 20.4841 14.9615L19.4649 14.2098V14.2089C19.1179 13.9542 18.8357 13.6215 18.6408 13.2377C18.4459 12.8539 18.3439 12.4297 18.3429 11.9992C18.3429 11.1189 18.7689 10.3021 19.4632 9.79121L19.4649 9.79035L20.4824 9.03864C20.1062 7.97097 19.5332 6.98332 18.7929 6.12693L17.6503 6.62921L17.6486 6.63007C17.3006 6.78436 16.9261 6.86321 16.5464 6.86321C15.8711 6.8622 15.2199 6.61229 14.7174 6.16129C14.2148 5.71028 13.8962 5.08985 13.8223 4.41864V4.41693L13.6826 3.1655C13.1312 3.0628 12.572 3.00746 12.0112 3.00007C11.4433 3.00721 10.8769 3.06256 10.3184 3.1655L10.1786 4.41778C10.1306 4.84512 9.98295 5.25523 9.74759 5.61514C9.51222 5.97504 9.1957 6.27471 8.82347 6.49005C8.45123 6.70539 8.03367 6.83039 7.60434 6.855C7.17502 6.87962 6.7459 6.80316 6.35149 6.63178L5.20635 6.12778C4.46606 6.98415 3.893 7.97181 3.51692 9.0395L4.53692 9.79121C4.88317 10.0462 5.16463 10.379 5.35862 10.7628C5.5526 11.1465 5.65367 11.5705 5.65367 12.0005C5.65367 12.4305 5.5526 12.8545 5.35862 13.2382C5.16463 13.622 4.88317 13.9548 4.53692 14.2098L3.51692 14.9624C3.89229 16.0317 4.46507 17.0212 5.20549 17.8792L6.35835 17.3735C6.75151 17.2014 7.17962 17.1241 7.60813 17.148C8.03664 17.1718 8.45355 17.296 8.82521 17.5106C9.19671 17.7253 9.51269 18.024 9.74774 18.3829C9.9828 18.7418 10.1304 19.1509 10.1786 19.5772V19.5815L10.3175 20.8364C11.4292 21.0549 12.5718 21.0549 13.6835 20.8364L13.8223 19.5789C13.8429 19.3904 13.8824 19.2044 13.9406 19.0261H13.9398Z" fill="black"/>
</svg>
